<?xml version="1.0" encoding="utf-8"?>
<!-- Generator: Adobe Illustrator 19.0.0, SVG Export Plug-In . SVG Version: 6.00 Build 0)  -->
<svg version="1.1" id="Capa_1" xmlns="http://www.w3.org/2000/svg" xmlns:xlink="http://www.w3.org/1999/xlink" x="0px" y="0px"
	 viewBox="16 135.3 512 371.3" style="enable-background:new 16 135.3 512 371.3;" xml:space="preserve">
<style type="text/css">
	.st0{fill:#3F3013;}
</style>
<g>
	<path class="st0" d="M520.5,265.9L300.8,137.4c-4.7-2.7-10.5-2.8-15.2-0.1c-4.7,2.7-7.6,7.7-7.6,13.2l0,58
		c-0.3,0.1-0.5,0.1-0.6,0.2c-5.5,1.5-11.3,3.2-18.4,5.3c-22.8,6.8-46.2,15.6-73.7,27.6c-23.9,10.5-47.2,24-69.4,40.2
		c-15.8,11.6-30.8,24.9-44.3,39.7C34.7,361.7,14.4,415,16.1,467.9c0.3,9.3,1.3,18.1,2.3,25.6c1,7.4,7.2,13,14.7,13.2
		c0.1,0,0.2,0,0.3,0c7.3,0,13.7-5.3,14.9-12.5c4.1-23.1,10.6-42,19.9-58c11.6-19.9,27.5-36.6,45.7-48.3
		c15.7-10.1,32.3-17.8,50.8-23.6c21.5-6.8,45.2-11.1,72.5-13c11-0.8,22.9-1.2,37.3-1.3c0.4,0,1.4,0,2.6,0l0,54.7
		c0,5.4,2.9,10.4,7.6,13.1c4.7,2.7,10.4,2.7,15.1,0.1l220.4-125.6c4.7-2.7,7.6-7.7,7.7-13.1C528,273.7,525.2,268.7,520.5,265.9z"/>
</g>
</svg>
