<?xml version="1.0" encoding="utf-8"?>
<!-- Generator: Adobe Illustrator 19.2.1, SVG Export Plug-In . SVG Version: 6.00 Build 0)  -->
<svg version="1.1" id="Calque_1" xmlns="http://www.w3.org/2000/svg" xmlns:xlink="http://www.w3.org/1999/xlink" x="0px" y="0px"
	 viewBox="0 0 995.8 200.8" style="enable-background:new 0 0 995.8 200.8;" xml:space="preserve">
<style type="text/css">
	.st0{fill:#007395;}
	.st1{fill:url(#SVGID_1_);}
	.st2{fill:#1D1D1B;}
</style>
<circle class="st0" cx="100.3" cy="100.3" r="100.3"/>
<linearGradient id="SVGID_1_" gradientUnits="userSpaceOnUse" x1="36.4437" y1="80.772" x2="271.8995" y2="183.101">
	<stop  offset="0.1383" style="stop-color:#004E66"/>
	<stop  offset="0.1623" style="stop-color:#005068"/>
	<stop  offset="0.4764" style="stop-color:#006381"/>
	<stop  offset="0.7644" style="stop-color:#006F90"/>
	<stop  offset="1" style="stop-color:#007395"/>
</linearGradient>
<path class="st1" d="M35.7,80.5l69.5,73.6L71.2,174l21.6,26.4c56.5,5.2,100-39.6,106.4-82.3L129,25.9L35.7,80.5z"/>
<polygon class="st2" points="75.9,80.5 84.4,73.3 164.5,119.4 71.2,174 71.2,168.4 129,119.4 "/>
<polygon class="st2" points="124.7,119.4 117.2,125.8 35.7,80.5 129,25.9 129,31.1 71.2,80.5 "/>
<path class="st2" d="M324.9,59.2v6.3h-16.2v-6.3c0-0.9-0.3-1.7-1-2.3c-0.7-0.6-1.4-1-2.3-1h-69.1c-0.9,0-1.7,0.3-2.3,1
	c-0.7,0.7-1,1.4-1,2.3v23.1c0,0.9,0.3,1.7,1,2.3c0.6,0.7,1.4,1,2.3,1h69.1c5.4,0,10,1.9,13.8,5.7c3.8,3.8,5.7,8.4,5.7,13.8v23.1
	c0,5.4-1.9,10-5.7,13.8c-3.8,3.8-8.4,5.7-13.8,5.7h-69.1c-5.4,0-10-1.9-13.8-5.7c-3.8-3.8-5.7-8.4-5.7-13.8V122H233v6.3
	c0,0.9,0.3,1.7,1,2.3c0.6,0.7,1.4,1,2.3,1h69.1c0.9,0,1.7-0.3,2.3-1c0.6-0.7,1-1.4,1-2.3v-23.1c0-0.9-0.3-1.7-1-2.3
	c-0.7-0.7-1.4-1-2.3-1h-69.1c-5.4,0-10-1.9-13.8-5.7c-3.8-3.8-5.7-8.4-5.7-13.8V59.2c0-5.4,1.9-10,5.7-13.8
	c3.8-3.8,8.4-5.7,13.8-5.7h69.1c5.4,0,10,1.9,13.8,5.7C323,49.2,324.9,53.8,324.9,59.2z"/>
<path class="st2" d="M353.7,131.6h69.1v16.2h-69.1c-5.4,0-10-1.9-13.8-5.7c-3.8-3.8-5.7-8.4-5.7-13.8V80.3c0-5.4,1.9-10,5.7-13.8
	c3.8-3.8,8.4-5.7,13.8-5.7h68.8v16.2h-68.8c-0.9,0-1.7,0.3-2.3,1c-0.7,0.7-1,1.4-1,2.3v48.1c0,0.9,0.3,1.7,1,2.3
	C352.1,131.3,352.8,131.6,353.7,131.6z"/>
<path class="st2" d="M501.8,60.7c5.4,0,10,1.9,13.8,5.7c3.8,3.8,5.7,8.4,5.7,13.8v67.6h-69.1c-5.4,0-10-1.9-13.8-5.7
	c-3.8-3.8-5.7-8.4-5.7-13.8V96.2h72.4V80.3c0-0.9-0.3-1.7-1-2.3c-0.7-0.7-1.4-1-2.3-1h-69.1V60.7H501.8z M505.1,131.6v-19.2H449
	v15.9c0,0.9,0.3,1.7,1,2.3c0.7,0.7,1.4,1,2.3,1H505.1z"/>
<path class="st2" d="M528,80.3V32.2h16.2v96.1c0,0.9,0.3,1.7,1,2.3c0.7,0.7,1.4,1,2.3,1h16.2v16.2h-16.2c-5.4,0-10-1.9-13.8-5.7
	c-3.8-3.8-5.7-8.4-5.7-13.8V80.3z"/>
<path class="st2" d="M636.3,60.7c5.4,0,10,1.9,13.8,5.7c3.8,3.8,5.7,8.4,5.7,13.8v32.1h-72.4v15.9c0,0.9,0.3,1.7,1,2.3
	c0.7,0.7,1.4,1,2.3,1h69.1v16.2h-69.1c-5.4,0-10-1.9-13.8-5.7c-3.8-3.8-5.7-8.4-5.7-13.8V80.3c0-5.4,1.9-10,5.7-13.8
	c3.8-3.8,8.4-5.7,13.8-5.7H636.3z M583.4,96.2h56.2V80.3c0-0.9-0.3-1.7-1-2.3c-0.7-0.7-1.4-1-2.3-1h-49.6c-0.9,0-1.7,0.3-2.3,1
	c-0.7,0.7-1,1.4-1,2.3V96.2z"/>
<path class="st0" d="M666.2,39.7h88.6c5.4,0,10,1.9,13.8,5.7c3.8,3.8,5.7,8.4,5.7,13.8v69.1c0,5.4-1.9,10-5.7,13.8
	c-3.8,3.8-8.4,5.7-13.8,5.7h-88.6V39.7z M758.1,128.3V59.2c0-0.9-0.3-1.7-1-2.3c-0.7-0.6-1.4-1-2.3-1h-69.1c-0.9,0-1.7,0.3-2.3,1
	c-0.7,0.7-1,1.4-1,2.3v69.1c0,0.9,0.3,1.7,1,2.3c0.7,0.7,1.4,1,2.3,1h69.1c0.9,0,1.7-0.3,2.3-1C757.7,130,758.1,129.2,758.1,128.3z"
	/>
<path class="st0" d="M873,39.7v16.2h-82.9v29.7h66.7v16.2h-66.7v29.7H873v16.2h-99.1V39.7H873z"/>
<path class="st0" d="M925.4,129.5l51.8-89.8h18.6l-62.3,108.1h-16.2L854.8,39.7h18.8L925.4,129.5z"/>
</svg>
