<?xml version="1.0" encoding="utf-8"?>
<!-- Generator: Adobe Illustrator 19.0.0, SVG Export Plug-In . SVG Version: 6.00 Build 0)  -->
<svg version="1.1" id="Calque_1" xmlns="http://www.w3.org/2000/svg" xmlns:xlink="http://www.w3.org/1999/xlink" x="0px" y="0px"
	 viewBox="-326 367.9 106 106" style="enable-background:new -326 367.9 106 106;" xml:space="preserve">
<style type="text/css">
	.st0{fill:none;stroke:#474747;stroke-width:3;stroke-miterlimit:10;}
	.st1{opacity:0.75;}
</style>
<circle class="st0" cx="-273" cy="420.9" r="49.8"/>
<g id="Icons" class="st1">
	<g id="link">
		<path id="right" d="M-253.2,401.1c3,3,3.1,8,0.1,11l-11.6,11.5c4.5,1.5,8.1,2.8,11,0l8.3-8.3c4.6-4.6,1.8-14.7-2.8-19.2
			c-4.6-4.6-14.7-7.3-19.2-2.8l-8.3,8.3c-2.8,2.8-1.5,6.5,0,11l11.5-11.6C-261.2,398-256.3,398.1-253.2,401.1z"/>
		<path id="center" d="M-284,431.9c1.5,1.5,3.9,1.6,5.3,0.2l16.8-16.8c1.4-1.4,1.3-3.9-0.2-5.3c-1.5-1.5-3.9-1.6-5.3-0.2l-16.8,16.8
			C-285.6,428-285.5,430.4-284,431.9z"/>
		<path id="left" d="M-292.8,440.7c-3-3-3.1-8-0.1-11l11.6-11.5c-4.5-1.5-8.1-2.8-11,0l-8.3,8.3c-4.6,4.6-1.8,14.7,2.8,19.2
			c4.6,4.6,14.7,7.3,19.2,2.8l8.3-8.3c2.8-2.8,1.5-6.5,0-11l-11.5,11.6C-284.8,443.7-289.7,443.7-292.8,440.7z"/>
	</g>
</g>
</svg>
