<svg xmlns="http://www.w3.org/2000/svg" viewBox="0 0 110.51 125.23"><defs><style>.cls-1{fill:#3e5ca7;}</style></defs><title>Fichier 1</title><g id="Calque_2" data-name="Calque 2"><g id="Calque_1-2" data-name="Calque 1"><path class="cls-1" d="M17.49,118.26a7.07,7.07,0,0,1-.7,3.28,5.9,5.9,0,0,1-1.87,2.15,7.79,7.79,0,0,1-2.77,1.18,14.93,14.93,0,0,1-3.34.36,13.21,13.21,0,0,1-3.27-.35,9.41,9.41,0,0,1-2.45-.95,7.73,7.73,0,0,1-1.8-1.4A10.73,10.73,0,0,1,0,120.81l3.07-2.22A10.17,10.17,0,0,0,4,119.82a5.77,5.77,0,0,0,1.18,1,5.85,5.85,0,0,0,1.58.69,7.63,7.63,0,0,0,2.08.26,9,9,0,0,0,1.73-.17,4.56,4.56,0,0,0,1.49-.55,3.05,3.05,0,0,0,1-1,2.82,2.82,0,0,0,.39-1.54,2.65,2.65,0,0,0-.38-1.45,3.16,3.16,0,0,0-1-1,6.13,6.13,0,0,0-1.48-.67c-.57-.18-1.18-.35-1.82-.52-1.18-.3-2.28-.61-3.29-.92a10.48,10.48,0,0,1-2.63-1.21,5.25,5.25,0,0,1-1.76-1.87A5.82,5.82,0,0,1,.48,108,7.11,7.11,0,0,1,1,105.17,5.68,5.68,0,0,1,2.59,103a6.94,6.94,0,0,1,2.57-1.37,12,12,0,0,1,3.55-.48,12.21,12.21,0,0,1,2.74.28,9.14,9.14,0,0,1,2.26.8,7.78,7.78,0,0,1,1.81,1.3,9,9,0,0,1,1.4,1.76l-3,2.25a6.44,6.44,0,0,0-2.17-2.2,5.91,5.91,0,0,0-3.05-.73,5.26,5.26,0,0,0-3.1.8,2.61,2.61,0,0,0-1.14,2.27,2.21,2.21,0,0,0,.31,1.22,2.51,2.51,0,0,0,1,.86,7.34,7.34,0,0,0,1.62.66c.65.2,1.42.4,2.31.61.69.17,1.36.34,2,.53a16.08,16.08,0,0,1,1.85.66,9.24,9.24,0,0,1,1.61.89,5.41,5.41,0,0,1,1.26,1.22,5.73,5.73,0,0,1,.83,1.68,7.48,7.48,0,0,1,.3,2.23"/><path class="cls-1" d="M41,113.2a19.08,19.08,0,0,1-.7,5.64,8.14,8.14,0,0,1-2.1,3.55,7.67,7.67,0,0,1-3.44,1.83,19.28,19.28,0,0,1-4.76.53H23.59V101.66H30a17.93,17.93,0,0,1,4.84.58,7.89,7.89,0,0,1,3.47,1.94,8.31,8.31,0,0,1,2.07,3.56A18.89,18.89,0,0,1,41,113.2m-4.07,0a16.67,16.67,0,0,0-.37-3.87,5.24,5.24,0,0,0-1.22-2.45,4.58,4.58,0,0,0-2.25-1.27,13.64,13.64,0,0,0-3.47-.37H27.47v16h2.19a13.26,13.26,0,0,0,3.5-.39,4.68,4.68,0,0,0,2.26-1.32,5.4,5.4,0,0,0,1.2-2.47,17.89,17.89,0,0,0,.35-3.84"/><path class="cls-1" d="M64.66,113.2a19.08,19.08,0,0,1-.7,5.64,8.14,8.14,0,0,1-2.1,3.55,7.67,7.67,0,0,1-3.44,1.83,19.28,19.28,0,0,1-4.76.53H47.21V101.66H53.6a17.93,17.93,0,0,1,4.84.58,7.89,7.89,0,0,1,3.47,1.94A8.2,8.2,0,0,1,64,107.74a18.52,18.52,0,0,1,.69,5.46m-4.07,0a16.67,16.67,0,0,0-.37-3.87A5.24,5.24,0,0,0,59,106.85a4.58,4.58,0,0,0-2.25-1.27,13.64,13.64,0,0,0-3.47-.37H51.09v16h2.19a13.26,13.26,0,0,0,3.5-.39A4.68,4.68,0,0,0,59,119.48a5.4,5.4,0,0,0,1.2-2.47,17.89,17.89,0,0,0,.35-3.84"/><polygon class="cls-1" points="71.03 124.75 71.03 101.66 85.58 101.66 85.58 105.13 74.91 105.13 74.91 110.98 83.97 110.98 83.97 114.47 74.91 114.47 74.91 121.19 85.58 121.19 85.58 124.75 71.03 124.75"/><path class="cls-1" d="M89.91,124.75l7.76-23.09h5l7.79,23.09h-4l-1.77-5.32H95.55l-1.75,5.32Zm6.76-8.81h6.87l-3.42-10.4Z"/><path class="cls-1" d="M82,67.8c7.14.31,11.27.11,14-.44a10.68,10.68,0,0,0,4-7.51c-18.44,4-37.09-4.38-44.07-10.19C63.2,63.58,73.3,67.41,82,67.8"/><path class="cls-1" d="M38.29,12.42S54.45,24,70.84,11.77c0,0,3.78,1.4,5,4.16-7.39,8.59-29.51,17.88-46.61,4.29a33.65,33.65,0,0,1,9.06-7.8"/><path class="cls-1" d="M103.72,40.52c-13,4-32.28,8.11-48.62-6.08-.35-.3-.72-.59-1.06-.92a34.36,34.36,0,0,0-3.84-3.47c5-.3,9.52-.06,12.71-.85C80.93,40,90.73,36,103.35,34a10.48,10.48,0,0,1,.37,6.51"/><path class="cls-1" d="M42.73,29.88a17.26,17.26,0,0,1,8.48,5C62.73,47.11,80,50,103.13,47.3a8.53,8.53,0,0,1-.77,6.5c-9.52,2.38-36.71,9-54-17.47-1.71-2.62-4.83-5.07-5.65-6.45"/><path class="cls-1" d="M31.4,25.55h0c9.42,5.89,15.49,11.89,21.24,24.35C57.77,61,65.1,65.43,65.1,65.43S42.63,62.81,31.4,25.55"/><path class="cls-1" d="M26.69,23.76a35.69,35.69,0,0,0-4.58,13.32c8.34,28.33,22.69,36,42.75,39.11a52.24,52.24,0,0,1,17,5.78A10.29,10.29,0,0,0,88,77C84.32,73.55,74,70.42,68.77,69.45,38,65.9,27,23.76,26.7,23.76h0"/><path class="cls-1" d="M64.38,79.22c-1-.16-2-.32-3-.5a37.76,37.76,0,0,1-32.92-10.6,37.54,37.54,0,0,1-4.63-5.6,38.1,38.1,0,0,1-3.49-6.43,38.06,38.06,0,0,1,0-29.48,38.1,38.1,0,0,1,3.49-6.43,37.54,37.54,0,0,1,4.63-5.6A38.16,38.16,0,0,1,34.09,10,38,38,0,0,1,70,6.46,38.22,38.22,0,0,1,86.66,20.18a38.83,38.83,0,0,1,3.49,6.43,38.22,38.22,0,0,1,2,6.22c1.14-.17,2.29-.36,3.45-.56a41.32,41.32,0,1,0-26.34,48c-1.93-.5-3.63-.84-4.89-1"/></g></g></svg>